<?xml version="1.0" encoding="utf-8"?>
<!-- Generator: Adobe Illustrator 23.0.1, SVG Export Plug-In . SVG Version: 6.00 Build 0)  -->
<svg version="1.1" id="Capa_1" xmlns="http://www.w3.org/2000/svg" xmlns:xlink="http://www.w3.org/1999/xlink" x="0px" y="0px"
	 viewBox="0 0 512 512" style="enable-background:new 0 0 512 512;" xml:space="preserve">
<g>
	<g>
		<g>
			<path  fill="white"  d="M496,480H32V16c0-8.8-7.2-16-16-16S0,7.2,0,16v464c0,17.6,14.4,32,32,32h464c8.8,0,16-7.2,16-16S504.8,480,496,480z"/>
		</g>
	</g>
	<g>
		<g>
			<path fill="white"   d="M496,64H368c-6.5,0-12.3,3.9-14.8,9.9c-2.5,6-1.1,12.9,3.5,17.4l52.7,52.7L304,249.4l-36.7-36.7
				c-6.2-6.2-16.4-6.2-22.6,0l-176,176c-6.2,6.2-6.2,16.4,0,22.6c3.1,3.1,7.2,4.7,11.3,4.7s8.2-1.6,11.3-4.7L256,246.6l36.7,36.7
				c6.2,6.2,16.4,6.2,22.6,0L432,166.6l52.7,52.7c3.1,3.1,7.2,4.7,11.3,4.7c2,0,4.1-0.4,6.1-1.2c6-2.5,9.9-8.3,9.9-14.8V80
				C512,71.2,504.8,64,496,64z M480,169.4L406.6,96H480V169.4z"/>
		</g>
	</g>
</g>
</svg>
